<svg height="56.025" viewBox="0 0 46.455 56.025" width="46.455" xmlns="http://www.w3.org/2000/svg"><path d="m67.328 179.155v-10.988c0-2.772-3.018-5.018-6.741-5.018h-22.919c-3.723 0-6.741 2.247-6.741 5.018v10.987z" fill="#3ab4fc" transform="translate(-30.927 -124.829)"/><path d="m92.29 138.64h-13.468v9.777h13.468c0-3.4 0-6.156 0-9.777z" fill="#f9cfcf" transform="translate(-67.362 -106.184)"/><path d="m53.043 217.417a.437.437 0 0 1 -.479-.378v-7.994a.492.492 0 0 1 .957 0v7.994a.437.437 0 0 1 -.478.378z" fill="#fff" transform="translate(-47.387 -161.392)"/><path d="m157.844 217.417a.437.437 0 0 1 -.479-.378v-7.994a.492.492 0 0 1 .957 0v7.994a.437.437 0 0 1 -.478.378z" fill="#fff" transform="translate(-127.111 -161.392)"/><path d="m56.789 59.524a15.791 15.791 0 0 1 -15.789-15.791v-6.614a3.969 3.969 0 0 1 3.969-3.969h27.611v10.583a15.791 15.791 0 0 1 -15.791 15.791z" fill="#2373d9" transform="translate(-38.588 -25.936)"/><path d="m64.369 35.463v-1.263a13.45 13.45 0 0 0 -26.9 0v1.259a4.067 4.067 0 1 0 .355 8.1 13.476 13.476 0 0 0 26.188 0 4.067 4.067 0 1 0 .355-8.1z" fill="#ffd9b9" transform="translate(-32.719 -16.599)"/><path d="m80.025 19.28h-21.1a8.14 8.14 0 0 1 0-16.28h13.811a7.289 7.289 0 0 1 7.289 7.289z" fill="#2373d9" transform="translate(-46.033 -3)"/><g fill="#344145"><path d="m129.489 90.319a1.691 1.691 0 0 0 -.42 1.116v1.813a1.7 1.7 0 1 0 3.4 0v-1.73a8.045 8.045 0 0 1 -2.98-1.199z" transform="translate(-105.586 -69.425)"/><path d="m70.693 91.5v1.733a1.7 1.7 0 1 0 3.4 0v-1.81a1.692 1.692 0 0 0 -.424-1.121 8.043 8.043 0 0 1 -2.976 1.198z" transform="translate(-61.178 -69.413)"/><path d="m128.941 86.86a8.617 8.617 0 0 1 -5.978-2.635.478.478 0 0 1 .711-.64 7.718 7.718 0 0 0 5.491 2.315.479.479 0 1 1 .033.957q-.129.003-.257.003z" transform="translate(-100.848 -64.182)"/><path d="m63.309 86.861c-.085 0-.17 0-.257 0a.479.479 0 0 1 .033-.957 7.691 7.691 0 0 0 5.49-2.314.478.478 0 1 1 .712.64 8.619 8.619 0 0 1 -5.978 2.631z" transform="translate(-55.014 -64.182)"/><path d="m92.64 123.494a.479.479 0 0 1 -.34-.816 4.526 4.526 0 0 1 1.777-1.074 5.175 5.175 0 0 1 1.577-.25 5.365 5.365 0 0 1 1.629.206 4.566 4.566 0 0 1 1.917 1.118.479.479 0 0 1 -.68.674 3.608 3.608 0 0 0 -1.516-.877 4.4 4.4 0 0 0 -1.338-.164 4.226 4.226 0 0 0 -1.286.2 3.565 3.565 0 0 0 -1.4.84.476.476 0 0 1 -.34.143z" transform="translate(-77.51 -93.034)"/></g><path d="m113.364 186.973h-9.654a.69.69 0 0 1 -.718-.658v-12.279a.69.69 0 0 1 .718-.658h9.654a.69.69 0 0 1 .718.658v12.278a.69.69 0 0 1 -.718.659z" fill="#f4fbff" transform="translate(-85.748 -134.069)"/><path d="m152.47 111.333-1.082 2.2a1.556 1.556 0 1 0 2.791 0l-1.082-2.2a.35.35 0 0 0 -.627 0z" fill="#344145" transform="translate(-122.443 -85.263)"/><path d="m45.527 71.232-1.082 2.2a1.556 1.556 0 1 0 2.791 0l-1.082-2.2a.35.35 0 0 0 -.627 0z" fill="#344145" transform="translate(-41.089 -54.757)"/><path d="m190.892 47.136v-22.862a2.808 2.808 0 1 0 -5.616 0v22.862a5.027 5.027 0 1 0 5.616 0z" fill="#dfe5eb" transform="translate(-146.655 -17.047)"/><path d="m194.691 53.744v-23.929a1.065 1.065 0 1 0 -2.13 0v23.929a3.284 3.284 0 1 0 2.13 0z" fill="#f2274f" transform="translate(-152.197 -22.589)"/><path d="m102.992 221.5h11.09v1.2h-11.09z" fill="#fdc500" transform="translate(-85.748 -172.134)"/><path d="m78.143 158.771h-19.494a2.393 2.393 0 0 1 -2.393-2.393v-4.827a2.393 2.393 0 0 1 2.393-2.393h19.494a2.393 2.393 0 0 1 2.393 2.393v4.827a2.393 2.393 0 0 1 -2.393 2.393z" fill="#f4fbff" transform="translate(-50.195 -114.186)"/></svg>