<svg height="22.202" viewBox="0 0 16.33 22.202" width="16.33" xmlns="http://www.w3.org/2000/svg"><g fill="#98adb2"><path d="m7.456 14.912a7.511 7.511 0 0 1 -1.5-.151 7.415 7.415 0 0 1 -2.666-1.122 7.478 7.478 0 0 1 -2.7-3.28 7.418 7.418 0 0 1 -.434-1.4 7.529 7.529 0 0 1 0-3.005 7.415 7.415 0 0 1 1.117-2.667 7.478 7.478 0 0 1 3.28-2.7 7.418 7.418 0 0 1 1.4-.434 7.529 7.529 0 0 1 3.005 0 7.415 7.415 0 0 1 2.666 1.122 7.478 7.478 0 0 1 2.7 3.28 7.418 7.418 0 0 1 .434 1.4 7.528 7.528 0 0 1 0 3.005 7.415 7.415 0 0 1 -1.122 2.666 7.478 7.478 0 0 1 -3.28 2.7 7.418 7.418 0 0 1 -1.4.434 7.511 7.511 0 0 1 -1.5.152zm-4.008-9.212a.473.473 0 0 0 -.473.473v2.57a.473.473 0 0 0 .473.473h2.252v2.248a.473.473 0 0 0 .473.473h2.57a.473.473 0 0 0 .473-.473v-2.248h2.248a.473.473 0 0 0 .473-.473v-2.574a.473.473 0 0 0 -.473-.473h-2.248v-2.248a.473.473 0 0 0 -.473-.473h-2.574a.473.473 0 0 0 -.473.473v2.252z" transform="translate(.709 .709)"/><path d="m256 330h1.182v3.262h-1.182z" transform="translate(-248.437 -314.401)"/><path d="m222.091 383.28v2.628a1.77 1.77 0 0 1 -3.541 0v-2.628a1.77 1.77 0 0 1 3.541 0z" transform="translate(-212.169 -365.476)"/><path d="m91.435 0a8.165 8.165 0 1 0 8.165 8.165 8.174 8.174 0 0 0 -8.165-8.165zm0 14.912a6.747 6.747 0 1 1 6.747-6.747 6.755 6.755 0 0 1 -6.747 6.747z" transform="translate(-83.27)"/></g></svg>