<svg height="56" viewBox="0 0 42 56" width="42" xmlns="http://www.w3.org/2000/svg"><g transform="translate(-11 -2)"><path d="m40 39h-16a13 13 0 0 0 -13 13v6h42v-6a13 13 0 0 0 -13-13z" fill="#2373d9"/><path d="m25 39h-1c-.338 0-.669.025-1 .051v11.949h2z" fill="#fdc500"/><path d="m38 39v10.142a4 4 0 0 0 -3 3.858v1a1 1 0 0 0 1 1h2v-2h-1a2 2 0 0 1 4 0h-1v2h2a1 1 0 0 0 1-1v-1a4 4 0 0 0 -3-3.858v-10.142z" fill="#fdc500"/><g><path d="m45 16v8a13 13 0 0 1 -26 0v-8z" fill="#fddfb1"/><path d="m45 16v8a13 13 0 0 1 -26 0v-8z" fill="#ffd9b9"/><path d="m32 37a12.931 12.931 0 0 1 -6-1.474v3.474l6 6 6-6v-3.474a12.931 12.931 0 0 1 -6 1.474z" fill="#fce7e7"/><path d="m19 24v-5h-.5a3.5 3.5 0 0 0 0 7h.669a13.056 13.056 0 0 1 -.169-2z" fill="#ffd9b9"/><path d="m45.5 19h-.5v5a13.057 13.057 0 0 1 -.169 2h.669a3.5 3.5 0 0 0 0-7z" fill="#ffd9b9"/></g><ellipse cx="23.938" cy="51.849" fill="#3d505c" rx="1.612" ry="2.419"/><path d="m46 16h-28v-9a5 5 0 0 1 5-5h18a5 5 0 0 1 5 5z" fill="#3ab4fc"/><path d="m35 9h-2v-2h-2v2h-2v2h2v2h2v-2h2z" fill="#f2274f"/><path d="m23 33.367a12.964 12.964 0 0 0 18 0v-9.367h-18z" fill="#2373d9"/><path d="m23 24h1.414l-5.414-5.414v2.828l4 4z" fill="#5377e8"/><path d="m45 21.414v-2.828l-5.414 5.414h1.414v1.414z" fill="#5377e8"/></g></svg>