<svg enable-background="new 0 0 93.69 73.68" viewBox="0 0 93.69 73.68" xmlns="http://www.w3.org/2000/svg" xmlns:xlink="http://www.w3.org/1999/xlink"><linearGradient id="a" gradientTransform="matrix(83.423 0 0 -49.911 -13.3396 3746.5889)" gradientUnits="userSpaceOnUse" x1=".4424" x2="1.1554" y1="74.7539" y2="73.6779"><stop offset="0" stop-color="#c27dfe"/><stop offset="1" stop-color="#897dfe"/></linearGradient><path d="m56.82 64.64c0 5.25-4.26 9.51-9.51 9.51s-9.51-4.26-9.51-9.51 4.26-9.51 9.51-9.51 9.51 4.26 9.51 9.51z" fill="#003e68"/><path d="m69.66 5.23c0 2.62-2.12 4.75-4.75 4.75-1.51 0-2.93-.71-3.82-1.93-7.51 1.78-12.81 8.48-12.82 16.19h-4.75c.01-10.14 7.12-18.88 17.04-20.95 1.07-2.4 3.88-3.48 6.27-2.41 1.72.77 2.83 2.47 2.83 4.35z" fill="#013f69"/><path d="m65.62 1.66c1.31 0 2.38 1.06 2.38 2.38s-1.06 2.38-2.38 2.38c-1.31 0-2.38-1.06-2.38-2.38 0-1.31 1.06-2.38 2.38-2.38z" fill="#015081"/><path d="m69.66 65.91h-45.16c-13.13 0-23.77-10.64-23.77-23.77v-2.38c0-13.12 10.64-23.76 23.77-23.76h45.16c13.13 0 23.77 10.64 23.77 23.77v2.38c-.01 13.12-10.65 23.76-23.77 23.76z" fill="#b67dfe"/><path d="m33.77 65.91c-13.13 0-23.77-10.64-23.77-23.76v-2.38c0-13.13 10.64-23.77 23.77-23.77h35.89c13.13 0 23.77 10.64 23.77 23.77v2.38c0 13.13-10.64 23.77-23.77 23.77z" fill="url(#a)" transform="translate(.001 .003)"/><path d="m67.75 46.9h-40.87c-5.91.17-10.83-4.48-11.01-10.39s4.48-10.83 10.39-11.01c.21-.01.41-.01.62 0h40.88c5.91-.17 10.83 4.48 11.01 10.39.17 5.91-4.48 10.83-10.39 11.01-.21 0-.41 0-.63 0z" fill="#fff"/><path d="m67.75 46.9h-34.93c-5.91-.17-10.56-5.1-10.39-11.01.16-5.67 4.72-10.22 10.39-10.39h34.94c5.91.17 10.56 5.1 10.39 11.01-.17 5.67-4.72 10.22-10.4 10.39z" fill="#fff"/><path d="m32.82 30.26c-3.28 0-5.94 2.66-5.94 5.94s2.66 5.94 5.94 5.94 5.94-2.66 5.94-5.94-2.66-5.94-5.94-5.94zm0 8.32c-1.31 0-2.38-1.06-2.38-2.38s1.06-2.38 2.38-2.38c1.31 0 2.38 1.06 2.38 2.38-.01 1.32-1.07 2.38-2.38 2.38zm28.52-8.32c-3.28 0-5.94 2.66-5.94 5.94s2.66 5.94 5.94 5.94 5.94-2.66 5.94-5.94-2.66-5.94-5.94-5.94zm0 8.32c-1.31 0-2.38-1.06-2.38-2.38s1.06-2.38 2.38-2.38c1.31 0 2.38 1.06 2.38 2.38-.01 1.32-1.07 2.38-2.38 2.38z" fill="#013f69"/></svg>