<svg xmlns="http://www.w3.org/2000/svg" width="223.228" height="47.465" viewBox="0 0 223.228 47.465"><defs><style>.a,.b{fill:#fff;}.b{opacity:0.5;}</style></defs><g transform="translate(-211 -283.95)"><g transform="translate(272.507 292.458)"><path class="a" d="M489.941,358.186H478.623a5.108,5.108,0,0,1-5.108-5.108V330.52h10.776a5.65,5.65,0,0,1,5.649,5.65v.349H480.99v4.352h4.621a3.667,3.667,0,0,1,3.667,3.667v2.332H480.99v5.223h5.794a3.157,3.157,0,0,1,3.157,3.157Z" transform="translate(-473.515 -328.117)"/><path class="a" d="M581.2,377.3a5.228,5.228,0,0,1-5.228-5.228V365.6a6.713,6.713,0,0,0-.615-3.227,2.1,2.1,0,0,0-1.978-1.088,2.862,2.862,0,0,0-2.706,1.5,11.323,11.323,0,0,0-.833,5.128V377.3h-1.765a5.634,5.634,0,0,1-5.634-5.634V355.855h2.776a3.956,3.956,0,0,1,3.734,2.65h0a.8.8,0,0,0,.655-.328,5.877,5.877,0,0,1,2.4-1.943,9.266,9.266,0,0,1,3.851-.757,7.307,7.307,0,0,1,5.535,2.063,8.057,8.057,0,0,1,1.978,5.809V377.3Z" transform="translate(-541.605 -347.227)"/><path class="a" d="M684.055,378.533h-13.53a4.22,4.22,0,0,1-4.22-4.22h0l8.875-11.562h-4.929a3.435,3.435,0,0,1-3.435-3.435v-2.223h14.637a2.186,2.186,0,0,1,2.186,2.186v1.307a3.231,3.231,0,0,1-.656,1.952l-7.84,10.337h8.913Z" transform="translate(-621.134 -348.463)"/><path class="a" d="M770.192,377.3A4.681,4.681,0,0,1,766,374.708l-.125-.251h-.151a8.429,8.429,0,0,1-3.047,2.536,10.063,10.063,0,0,1-4.012.681,6.292,6.292,0,0,1-4.769-1.817,7.086,7.086,0,0,1-1.741-5.109,5.811,5.811,0,0,1,2.384-5.1,13.035,13.035,0,0,1,6.907-1.883l3.577-.113v-.3a2.325,2.325,0,0,0-2.612-2.649,8.951,8.951,0,0,0-1.588.155,5.94,5.94,0,0,1-6.511-3.448h0a20.568,20.568,0,0,1,9.462-1.93,9.194,9.194,0,0,1,6.387,2.044,7.31,7.31,0,0,1,2.261,5.715V377.3Zm-8.381-4.845a3.335,3.335,0,0,0,2.3-.851,2.827,2.827,0,0,0,.956-2.214v-1.665l-1.7.075q-3.652.132-3.652,2.687Q759.711,372.452,761.811,372.451Z" transform="translate(-686.873 -347.227)"/><path class="a" d="M859.5,323.557a3.126,3.126,0,0,1,.927-2.479,5.877,5.877,0,0,1,6,.019,3.1,3.1,0,0,1,.946,2.46q0,3.255-3.955,3.255Q859.5,326.812,859.5,323.557Zm7.588,26.777h-1.205a6.194,6.194,0,0,1-6.194-6.194V328.893h1.428a5.971,5.971,0,0,1,5.971,5.971Z" transform="translate(-769.062 -320.264)"/><path class="a" d="M945.382,377.3a5.124,5.124,0,0,1-5.124-5.124v-6.533a7,7,0,0,0-.6-3.264,2,2,0,0,0-1.883-1.088,2.651,2.651,0,0,0-2.5,1.457,9.936,9.936,0,0,0-.795,4.561V377.3H933.02a5.952,5.952,0,0,1-5.952-5.952v-5.705a7.3,7.3,0,0,0-.568-3.264,1.922,1.922,0,0,0-1.836-1.088,2.659,2.659,0,0,0-2.536,1.552,11.85,11.85,0,0,0-.795,5.071V377.3H920.02a6.085,6.085,0,0,1-6.085-6.085V355.855h3.019a3.613,3.613,0,0,1,3.41,2.42h0a.344.344,0,0,0,.324.23h0a.343.343,0,0,0,.29-.165,5.545,5.545,0,0,1,2.371-2.087,8.408,8.408,0,0,1,3.681-.776q4.432,0,6.34,2.577a.583.583,0,0,0,.467.243h0a.581.581,0,0,0,.46-.235,6.14,6.14,0,0,1,2.356-1.837,8.406,8.406,0,0,1,3.567-.748q3.8,0,5.62,1.949t1.817,5.923V377.3Z" transform="translate(-810.744 -347.227)"/><path class="a" d="M1086.665,377.674q-5.356,0-8.317-2.848t-2.961-8.108q0-5.431,2.744-8.336t7.834-2.9q4.844,0,7.484,2.526t2.64,7.276h0a3.293,3.293,0,0,1-3.293,3.293h-9.935a3.669,3.669,0,0,0,1.315,2.82,5.153,5.153,0,0,0,3.378,1.022,16.326,16.326,0,0,0,3.586-.369h0a2.905,2.905,0,0,1,3.548,2.833V376.1a13.055,13.055,0,0,1-3.6,1.23A24.861,24.861,0,0,1,1086.665,377.674Zm-.435-17.163a3.077,3.077,0,0,0-2.186.823,3.865,3.865,0,0,0-1.031,2.583h6.358a3.689,3.689,0,0,0-.88-2.479A2.9,2.9,0,0,0,1086.229,360.511Z" transform="translate(-934.367 -347.227)"/></g><g transform="translate(211 283.95)"><path class="a" d="M231.809,331.922a12.458,12.458,0,0,0,5.753-4.023,11.8,11.8,0,0,0,1.243-1.835,11.2,11.2,0,0,0,.862-2.021,12.919,12.919,0,0,0,.454-2.186,12.16,12.16,0,0,0-.449-4.546,18.619,18.619,0,0,0-.845-2.377c-.368-.858-.748-1.649-1.162-2.423-.755-1.429-1.576-2.834-2.445-4.321-1.131-1.935-2.3-3.937-3.347-6.049a33.182,33.182,0,0,1-2.321-5.953,20.439,20.439,0,0,1-.777-6.6v-.023c.007-.085.013-.171.019-.256.013-.186.027-.377.048-.575v-.013l0-.012.109-.8,0-.023,0-.023c.1-.51.189-.978.314-1.451a24.319,24.319,0,0,0-11.142,6.376,24.648,24.648,0,0,0-5.969,24.82,24.272,24.272,0,0,0,10.017,12.963A11.431,11.431,0,0,0,231.809,331.922Z" transform="translate(-211 -285.832)"/><path class="a" d="M323.762,291.063a24.691,24.691,0,0,0-1.988-1.783,8.711,8.711,0,0,1-.568,1.336q-.315.686-.672,1.352c-.356.661-.735,1.313-1.143,1.943-.386.6-.727,1.286-1.49,1.441a.848.848,0,0,1-.735-.146.783.783,0,0,1-.2-.717,2.468,2.468,0,0,1,.426-.9c.469-.707,1-1.4,1.4-2.147a4.191,4.191,0,0,0,.564-2.1c0-.021,0-.042,0-.063a4.342,4.342,0,0,0-4.342-4.342,4.518,4.518,0,0,0-3.81,2.3c-1.019,1.72-.574,3.348-.476,5.214a.589.589,0,0,1-.657.664c-.8-.143-.946-1.348-.953-1.982a7.708,7.708,0,0,0-.974-4.395,8.916,8.916,0,0,0-2.458-2.4,6.809,6.809,0,0,0-.64-.393c-.043.117-.086.239-.13.369a12.109,12.109,0,0,0-.319,1.195c-.077.371-.122.763-.17,1.179l0,.029-.038.629c0,.116,0,.239,0,.367,0,.085,0,.169,0,.254a15.746,15.746,0,0,0,.992,5,28.021,28.021,0,0,0,2.339,4.864c1.062,1.8,2.253,3.526,3.514,5.354.982,1.423,2,2.9,2.965,4.43.557.876,1.1,1.815,1.605,2.79a25.353,25.353,0,0,1,1.366,3.091,19.667,19.667,0,0,1,.929,3.417,18.818,18.818,0,0,1,.28,3.653,20.133,20.133,0,0,1-.464,3.636,18.694,18.694,0,0,1-1.178,3.5,19.535,19.535,0,0,1-1.821,3.2c-.12.171-.245.34-.371.509a24.445,24.445,0,0,0,9.219-40.351Z" transform="translate(-282.505 -283.95)"/><path class="a" d="M361.289,312.239a4.931,4.931,0,0,0,.45-1.129l-1.85,3.276C360.357,313.679,360.884,312.985,361.289,312.239Z" transform="translate(-325.004 -304.746)"/><path class="b" d="M356.957,308.481a24.7,24.7,0,0,0-1.988-1.783,8.714,8.714,0,0,1-.568,1.336q-.315.686-.672,1.352c-.356.661-.735,1.313-1.143,1.943a3.3,3.3,0,0,1-1.123,1.316c-.031.015-.063.026-.095.038,14.784,26.135-3.63,36.15-3.63,36.15a24.445,24.445,0,0,0,9.219-40.351Z" transform="translate(-315.7 -301.368)"/><path class="a" d="M267.643,309.093c-1.131-1.935-2.3-3.936-3.347-6.049a33.181,33.181,0,0,1-2.321-5.953,20.441,20.441,0,0,1-.777-6.6v-.023c.007-.085.013-.171.019-.256.013-.186.027-.377.048-.574v-.013l0-.013.109-.8,0-.023,0-.023c.084-.448.168-.863.271-1.278-2.772,2.812-20.25,22.341,5.752,43.731a13.587,13.587,0,0,0,2.574-2.413,11.83,11.83,0,0,0,1.243-1.835,11.194,11.194,0,0,0,.862-2.022,12.916,12.916,0,0,0,.454-2.186,12.161,12.161,0,0,0-.449-4.547,18.637,18.637,0,0,0-.845-2.377c-.368-.858-.748-1.649-1.162-2.423C269.333,311.985,268.512,310.58,267.643,309.093Z" transform="translate(-243.423 -286.657)"/></g></g></svg>