<svg height="22.67" viewBox="0 0 12.257 22.67" width="12.257" xmlns="http://www.w3.org/2000/svg"><path d="m33.872 0h-2.94c-3.302 0-5.432 2.19-5.432 5.579v2.573h-2.961a.462.462 0 0 0 -.462.462v3.727a.462.462 0 0 0 .462.462h2.961v9.4a.462.462 0 0 0 .462.462h3.857a.462.462 0 0 0 .462-.462v-9.403h3.456a.462.462 0 0 0 .462-.462v-3.724a.463.463 0 0 0 -.462-.462h-3.461v-2.181c0-1.048.25-1.58 1.615-1.58h1.98a.462.462 0 0 0 .462-.462v-3.462a.462.462 0 0 0 -.461-.467z" fill="#3b5998" transform="translate(-22.077)"/></svg>