<svg height="20.403" viewBox="0 0 20.403 20.403" width="20.403" xmlns="http://www.w3.org/2000/svg"><path d="m4.782 106.423a5.386 5.386 0 0 1 .762-2.769v-3.439h-3.444a10.207 10.207 0 0 0 0 12.416h3.444v-3.439a5.386 5.386 0 0 1 -.762-2.769z" fill="#fbbd00" transform="translate(0 -96.221)"/><path d="m198.391 373.72-2.391 2.391 2.391 2.391a10.124 10.124 0 0 0 6.208-2.1v-3.436h-3.436a5.419 5.419 0 0 1 -2.772.754z" fill="#0f9d58" transform="translate(-188.189 -358.099)"/><path d="m56.262 325.477-3.439 3.439a10.366 10.366 0 0 0 .883 1.006 10.135 10.135 0 0 0 7.214 2.988v-4.782a5.422 5.422 0 0 1 -4.658-2.651z" fill="#31aa52" transform="translate(-50.718 -312.507)"/><path d="m266.2 199.662a10.29 10.29 0 0 0 -.167-1.848l-.09-.49h-9.943v4.782h4.84a5.4 5.4 0 0 1 -2.068 2.217l3.436 3.436a10.364 10.364 0 0 0 1.006-.883 10.135 10.135 0 0 0 2.986-7.214z" fill="#3c79e6" transform="translate(-245.798 -189.461)"/><path d="m202.223 6.369.423.423 3.381-3.381-.423-.423a10.135 10.135 0 0 0 -7.213-2.988l-2.391 2.391 2.391 2.391a5.384 5.384 0 0 1 3.832 1.587z" fill="#cf2d48" transform="translate(-188.189)"/><path d="m60.919 4.782v-4.782a10.135 10.135 0 0 0 -7.219 2.988 10.355 10.355 0 0 0 -.883 1.006l3.439 3.439a5.422 5.422 0 0 1 4.663-2.651z" fill="#eb4132" transform="translate(-50.717)"/></svg>