<svg height="19.318" viewBox="0 0 20.301 19.318" width="20.301" xmlns="http://www.w3.org/2000/svg"><g fill="#98adb2" transform="translate(0 -25.006)"><path d="m10.145 26.69a5.952 5.952 0 0 0 -9.153 7.51h4.376l.778-1.3a.6.6 0 0 1 1.012-.013l1.642 2.588 2.394-5.053a.6.6 0 0 1 1.061-.027l2.052 3.81h4.993c3.7-5.779-3.61-12.362-9.153-7.514z"/><path d="m60.24 204.351-1.663-3.088-2.351 4.963a.6.6 0 0 1 -1.039.065l-1.7-2.677-.456.761a.6.6 0 0 1 -.51.289h-3.775c.118.124-.512-.505 7.792 7.756a.6.6 0 0 0 .839 0c8.177-8.134 7.674-7.633 7.792-7.756h-4.405a.6.6 0 0 1 -.524-.313z" transform="translate(-46.813 -168.269)"/></g></svg>