<svg height="17.774" viewBox="0 0 20.408 17.774" width="20.408" xmlns="http://www.w3.org/2000/svg" xmlns:xlink="http://www.w3.org/1999/xlink"><linearGradient id="a" gradientUnits="objectBoundingBox" x1="1.316" x2=".113" y1="-.28" y2=".5"><stop offset="0" stop-color="#00a2e2"/><stop offset="1" stop-color="#8659e7"/></linearGradient><path d="m14.108 37.306-9.8 8.07v8.71a.85.85 0 0 0 .85.85l5.955-.015a.85.85 0 0 0 .846-.85v-5.087a.85.85 0 0 1 .85-.85h3.4a.85.85 0 0 1 .85.85v5.083a.85.85 0 0 0 .85.853l5.953.016a.85.85 0 0 0 .85-.85v-8.716l-9.8-8.064a.648.648 0 0 0 -.813 0z" fill="url(#a)" transform="translate(-4.309 -37.162)"/></svg>