<svg height="230" viewBox="0 0 360 230" width="360" xmlns="http://www.w3.org/2000/svg" xmlns:xlink="http://www.w3.org/1999/xlink"><clipPath id="a"><path d="m0 0h360v230h-360z"/></clipPath><linearGradient id="b" gradientUnits="objectBoundingBox" x1=".188" x2=".901" y1="-.026" y2="1.05"><stop offset="0" stop-color="#c27dfe"/><stop offset="1" stop-color="#897dfe"/></linearGradient><filter id="c" filterUnits="userSpaceOnUse" height="368" width="498" x="-69" y="-53"><feOffset dy="16"/><feGaussianBlur result="d" stdDeviation="23"/><feFlood flood-color="#003b86" flood-opacity=".2"/><feComposite in2="d" operator="in"/><feComposite in="SourceGraphic"/></filter><linearGradient id="d" x1=".406" x2=".156" xlink:href="#b" y1=".636" y2=".176"/><g clip-path="url(#a)"><g filter="url(#c)"><path d="m0 0h360a0 0 0 0 1 0 0v220a10 10 0 0 1 -10 10h-340a10 10 0 0 1 -10-10v-220a0 0 0 0 1 0 0z" fill="url(#b)"/></g><path d="m407.906 225.964s-5.563-101.464 88.823-81.864 166.471-192.344 258.963-123.519 175.54-104.791 175.54-104.791l-483.921 38.864-31.442 76.075z" fill="none" stroke="#8553ff" transform="translate(-471 40)"/><path d="m407.906 225.964s-5.563-101.464 88.823-81.864 166.471-192.344 258.963-123.519 175.54-104.791 175.54-104.791l-483.921 38.864-31.442 76.075z" fill="url(#d)" transform="translate(-471 26)"/></g></svg>