<svg height="56" viewBox="0 0 53.648 56" width="53.648" xmlns="http://www.w3.org/2000/svg"><path d="m39.326 42.784h8.574a2.193 2.193 0 0 1 2.193 2.193v46.912a2.193 2.193 0 0 1 -2.193 2.193h-34.956a2.193 2.193 0 0 1 -2.193-2.193v-46.912a2.193 2.193 0 0 1 2.193-2.193h8.572" fill="#2373d9" transform="translate(-10.751 -38.104)"/><path d="m333.835 42.784h-2.035a2.193 2.193 0 0 1 2.2 2.193v46.912a2.193 2.193 0 0 1 -2.193 2.193h2.032a2.193 2.193 0 0 0 2.193-2.193v-46.912a2.193 2.193 0 0 0 -2.193-2.193z" fill="#2373d9" transform="translate(-296.688 -38.104)"/><path d="m78.764 80.48v42.047a.564.564 0 0 1 -.564.564h-30.184a.564.564 0 0 1 -.564-.564v-42.047a.564.564 0 0 1 .564-.564h30.184a.565.565 0 0 1 .565.564z" fill="#3ab4fc" transform="translate(-43.438 -71.175)"/><path d="m315.154 79.916v43.176h1.468a.565.565 0 0 0 .564-.564v-42.048a.564.564 0 0 0 -.564-.564z" fill="#3ab4fc" transform="translate(-281.86 -71.175)"/><path d="m125.543 3.239h-3.649v-2.092a1.147 1.147 0 0 0 -1.147-1.147h-5.329a1.146 1.146 0 0 0 -1.146 1.147v2.092h-3.649a1.445 1.445 0 0 0 -1.445 1.445v3.976a1.445 1.445 0 0 0 1.445 1.445h14.92a1.445 1.445 0 0 0 1.445-1.445v-3.977a1.445 1.445 0 0 0 -1.445-1.445z" fill="#fdc500" transform="translate(-98.413)"/><path d="m197.518 1.147v2.092h2.032v-2.092a1.147 1.147 0 0 0 -1.15-1.147h-2.032a1.147 1.147 0 0 1 1.15 1.147z" fill="#fdc500" transform="translate(-176.069)"/><path d="m242.251 29.612h-2.032a1.445 1.445 0 0 1 1.445 1.445v3.976a1.445 1.445 0 0 1 -1.445 1.445h2.032a1.445 1.445 0 0 0 1.445-1.445v-3.976a1.445 1.445 0 0 0 -1.445-1.445z" fill="#fdc500" transform="translate(-215.121 -26.373)"/><path d="m171.585 147.828h-14.26a.848.848 0 0 0 0 1.7h14.259a.848.848 0 1 0 0-1.7z" fill="#fff" transform="translate(-140.538 -131.659)"/><path d="m157.325 177.36h8.014a.848.848 0 1 0 0-1.7h-8.014a.848.848 0 0 0 0 1.7z" fill="#fff" transform="translate(-140.538 -156.45)"/><path d="m77.036 142.577-3.123 3.2-1.351-1.314a.848.848 0 1 0 -1.183 1.216l1.958 1.9a.857.857 0 0 0 1.2-.016l3.714-3.809a.848.848 0 1 0 -1.215-1.185z" fill="#13e23b" transform="translate(-64.519 -126.754)"/><g fill="#fff"><path d="m171.585 226.831h-14.26a.848.848 0 0 0 0 1.7h14.259a.848.848 0 1 0 0-1.7z" transform="translate(-140.538 -202.021)"/><path d="m167.636 307.43h-10.119a.847.847 0 1 1 0-1.694h10.119a.847.847 0 0 1 0 1.694z" transform="translate(-140.71 -272.296)"/><path d="m166.807 335.21h-9.289a.847.847 0 1 1 0-1.694h9.289a.847.847 0 0 1 0 1.694z" transform="translate(-140.711 -297.037)"/><path d="m167.294 386.279h-9.777a.847.847 0 1 1 0-1.694h9.777a.847.847 0 1 1 0 1.694z" transform="translate(-140.71 -342.521)"/><path d="m168.111 414.059h-10.594a.847.847 0 1 1 0-1.694h10.594a.847.847 0 0 1 0 1.694z" transform="translate(-140.71 -367.262)"/><path d="m165.339 254.665h-8.014a.848.848 0 0 0 0 1.7h8.014a.848.848 0 1 0 0-1.7z" transform="translate(-140.537 -226.811)"/></g><path d="m77.036 221.579-3.123 3.2-1.351-1.314a.848.848 0 0 0 -1.183 1.217l1.958 1.9a.857.857 0 0 0 1.2-.016l3.714-3.809a.848.848 0 0 0 -1.215-1.185z" fill="#13e23b" transform="translate(-64.519 -197.115)"/><path d="m77.036 300.582-3.123 3.2-1.351-1.314a.848.848 0 0 0 -1.183 1.217l1.958 1.9a.857.857 0 0 0 1.2-.016l3.714-3.809a.848.848 0 1 0 -1.215-1.185z" fill="#13e23b" transform="translate(-64.519 -267.478)"/><path d="m77.036 379.584-3.123 3.2-1.351-1.314a.848.848 0 1 0 -1.183 1.217l1.958 1.9a.857.857 0 0 0 1.2-.016l3.714-3.809a.848.848 0 0 0 -1.215-1.185z" fill="#13e23b" transform="translate(-64.519 -337.839)"/><path d="m253.931 256.827c7.54 0 14.769 3.182 14.285 10.968-.758 12.186-9.228 20.595-14.285 15.355-5.057 5.24-13.526-3.168-14.285-15.355-.484-7.786 6.745-10.968 14.285-10.968z" fill="#f2365b" transform="translate(-214.59 -228.737)"/><path d="m362.162 256.827q-.509 0-1.016.02c7.159.276 13.731 3.513 13.269 10.948-.558 8.959-5.283 15.876-9.756 16.829 4.951 1.128 11.145-6.49 11.789-16.829.483-7.786-6.748-10.968-14.286-10.968z" fill="#fc2b3a" transform="translate(-322.821 -228.737)"/><path d="m376.464 209.348c-2.409 2.409-6.828 1.9-6.828 1.9s-.513-4.419 1.9-6.828c1.914-1.914 5.1-1.984 6.324-1.932a.563.563 0 0 1 .539.539c.049 1.225-.021 4.407-1.935 6.321z" fill="#fdc500" transform="translate(-330.342 -180.329)"/><path d="m377.853 202.486c-.187-.008-.418-.013-.683-.009-.01 1.467-.286 4.073-1.942 5.729-1.622 1.622-4.156 1.92-5.638 1.941a9.936 9.936 0 0 0 .045 1.1s4.419.513 6.828-1.9c1.914-1.914 1.984-5.1 1.932-6.324a.564.564 0 0 0 -.542-.537z" fill="#ebb802" transform="translate(-330.342 -180.33)"/><path d="m321.837 216.314a.86.86 0 0 1 -.116-.008.847.847 0 0 1 -.725-.951 9.9 9.9 0 0 0 -.305-3.42 9.112 9.112 0 0 0 -4.4-5.716.847.847 0 0 1 .851-1.464 10.886 10.886 0 0 1 5.208 6.82 11.389 11.389 0 0 1 .327 4.007.847.847 0 0 1 -.84.732z" fill="#fdc500" transform="translate(-282.496 -182.257)"/><path d="m331.524 287.473a7.668 7.668 0 0 1 -4.457-1.424.847.847 0 0 1 1.05-1.329 6.007 6.007 0 0 0 6.817 0 .847.847 0 0 1 1.047 1.331 7.668 7.668 0 0 1 -4.457 1.422z" fill="#ed1832" transform="translate(-292.184 -253.417)"/></svg>