<svg height="20.669" viewBox="0 0 25.432 20.669" width="25.432" xmlns="http://www.w3.org/2000/svg"><path d="m8 21.169a14.745 14.745 0 0 0 14.844-14.846q0-.339-.015-.674a10.616 10.616 0 0 0 2.6-2.7 10.408 10.408 0 0 1 -3 .822 5.236 5.236 0 0 0 2.301-2.889 10.468 10.468 0 0 1 -3.313 1.266 5.222 5.222 0 0 0 -8.892 4.758 14.815 14.815 0 0 1 -10.755-5.451 5.222 5.222 0 0 0 1.615 6.966 5.178 5.178 0 0 1 -2.363-.653v.067a5.219 5.219 0 0 0 4.186 5.115 5.211 5.211 0 0 1 -2.357.089 5.224 5.224 0 0 0 4.874 3.624 10.468 10.468 0 0 1 -6.48 2.237 10.639 10.639 0 0 1 -1.245-.075 14.771 14.771 0 0 0 8 2.344" fill="#00acee" transform="translate(0 -.5)"/></svg>